<svg xmlns="http://www.w3.org/2000/svg" width="322" height="322" fill="none" viewBox="0 0 322 322"><path fill="#212121" fill-rule="evenodd" d="M161 211C119.026 211 85 223.088 85 238C85 240.761 87.2386 243 90 243C92.7614 243 95 240.761 95 238L94.9999 237.973L95.0201 237.968C95.1177 237.658 95.5582 236.698 97.4041 235.148C100 232.967 104.353 230.553 110.608 228.331C123.029 223.918 140.844 221 161 221C181.156 221 198.971 223.918 211.392 228.331C217.647 230.553 222 232.967 224.596 235.148C226.442 236.698 226.882 237.658 226.98 237.968L227 237.973L227 238C227 240.761 229.239 243 232 243C234.761 243 237 240.761 237 238C237 223.088 202.974 211 161 211Z" clip-rule="evenodd"/><g clip-path="url(#clip0)"><path fill="#212121" d="M306.4 313.2L282.4 89.6C282 86 278.8 83.2 275.2 83.2H230.8V69.6C230.8 31.2 199.6 0 161.2 0C122.8 0 91.6 31.2 91.6 69.6V83.2H46C42.4 83.2 39.2 86 38.8 89.6L14.8 313.2C14.4 315.2 15.2 317.2 16.4 318.8C17.6 320.4 19.6 321.2 21.6 321.2H299.6C301.6 321.2 303.6 320.4 304.8 318.8C306 317.2 306.8 315.2 306.4 313.2ZM223.6 123.6C227.2 123.6 230 126.4 230 130C230 133.6 227.2 136.4 223.6 136.4C220 136.4 217.2 133.6 217.2 130C217.2 126.4 220 123.6 223.6 123.6ZM106 69.6C106 39.2 130.8 14.4 161.2 14.4C191.6 14.4 216.4 39.2 216.4 69.6V83.2H106V69.6ZM98.8 123.6C102.4 123.6 105.2 126.4 105.2 130C105.2 133.6 102.4 136.4 98.8 136.4C95.2 136.4 92.4 133.6 92.4 130C92.4 126.4 95.2 123.6 98.8 123.6ZM30 306.4L52.4 97.2H91.6V110.4C83.6 113.2 78 120.8 78 129.6C78 140.8 87.2 150 98.4 150C109.6 150 118.8 140.8 118.8 129.6C118.8 120.8 113.2 113.2 105.2 110.4V97.2H215.6V110.4C207.6 113.2 202 120.8 202 129.6C202 140.8 211.2 150 222.4 150C233.6 150 242.8 140.8 242.8 129.6C242.8 120.8 237.2 113.2 229.2 110.4V97.2H270L292.4 306.4H30Z"/></g><defs><clipPath id="clip0"><rect width="321.2" height="321.2" fill="#fff"/></clipPath></defs></svg>